<svg width="70" height="70" viewBox="0 0 70 70" fill="none" xmlns="http://www.w3.org/2000/svg">
<path fill-rule="evenodd" clip-rule="evenodd" d="M46.6667 26.2502C46.6667 29.3444 45.4375 32.3118 43.2496 34.4997C41.0617 36.6877 38.0942 37.9168 35 37.9168C31.9058 37.9168 28.9384 36.6877 26.7505 34.4997C24.5625 32.3118 23.3334 29.3444 23.3334 26.2502C23.3334 23.156 24.5625 20.1885 26.7505 18.0006C28.9384 15.8127 31.9058 14.5835 35 14.5835C38.0942 14.5835 41.0617 15.8127 43.2496 18.0006C45.4375 20.1885 46.6667 23.156 46.6667 26.2502ZM40.8334 26.2502C40.8334 27.7973 40.2188 29.281 39.1248 30.375C38.0309 31.4689 36.5471 32.0835 35 32.0835C33.4529 32.0835 31.9692 31.4689 30.8753 30.375C29.7813 29.281 29.1667 27.7973 29.1667 26.2502C29.1667 24.7031 29.7813 23.2193 30.8753 22.1254C31.9692 21.0314 33.4529 20.4168 35 20.4168C36.5471 20.4168 38.0309 21.0314 39.1248 22.1254C40.2188 23.2193 40.8334 24.7031 40.8334 26.2502Z" fill="#154734"/>
<path fill-rule="evenodd" clip-rule="evenodd" d="M35 2.91675C17.2813 2.91675 2.91669 17.2813 2.91669 35.0001C2.91669 52.7188 17.2813 67.0834 35 67.0834C52.7188 67.0834 67.0834 52.7188 67.0834 35.0001C67.0834 17.2813 52.7188 2.91675 35 2.91675ZM8.75002 35.0001C8.75002 41.0959 10.8296 46.7076 14.315 51.1642C16.7634 47.9505 19.9213 45.3459 23.5423 43.5539C27.1633 41.7618 31.1494 40.8308 35.1896 40.8334C39.1778 40.8288 43.1144 41.7349 46.6991 43.4828C50.2839 45.2307 53.4222 47.7742 55.8746 50.9192C58.4017 47.6048 60.1033 43.7361 60.8385 39.6335C61.5736 35.5308 61.3213 31.3121 60.1023 27.3263C58.8833 23.3405 56.7327 19.7023 53.8285 16.7127C50.9243 13.7231 47.3499 11.468 43.4011 10.1341C39.4524 8.80013 35.2427 8.42566 31.1204 9.04167C26.9982 9.65767 23.0819 11.2464 19.6956 13.6765C16.3093 16.1065 13.5503 19.308 11.6469 23.0161C9.74357 26.7241 8.75055 30.8321 8.75002 35.0001ZM35 61.2501C28.9739 61.2598 23.1296 59.1867 18.4567 55.3817C20.3374 52.6885 22.841 50.4896 25.7544 48.9723C28.6678 47.4549 31.9047 46.6639 35.1896 46.6667C38.4334 46.6639 41.6311 47.4352 44.5171 48.9164C47.403 50.3977 49.8938 52.5462 51.7825 55.1834C47.0735 59.1122 41.1327 61.2597 35 61.2501Z" fill="#154734"/>
</svg>
