<svg width="216" height="216" viewBox="0 0 216 216" fill="none" xmlns="http://www.w3.org/2000/svg">
<path d="M107.845 59.3145C107.845 72.1855 102.732 84.5293 93.6305 93.6305C84.5293 102.732 72.1855 107.845 59.3145 107.845C46.4435 107.845 34.0997 102.732 24.9986 93.6305C15.8974 84.5293 10.7844 72.1855 10.7844 59.3145C10.7844 46.4435 15.8974 34.0997 24.9986 24.9986C34.0997 15.8974 46.4435 10.7844 59.3145 10.7844C72.1855 10.7844 84.5293 15.8974 93.6305 24.9986C102.732 34.0997 107.845 46.4435 107.845 59.3145ZM64.7067 37.7456C64.7067 36.3155 64.1386 34.9439 63.1274 33.9327C62.1161 32.9215 60.7446 32.3533 59.3145 32.3533C57.8844 32.3533 56.5129 32.9215 55.5016 33.9327C54.4904 34.9439 53.9223 36.3155 53.9223 37.7456V53.9223H37.7456C36.3155 53.9223 34.9439 54.4904 33.9327 55.5016C32.9215 56.5129 32.3533 57.8844 32.3533 59.3145C32.3533 60.7446 32.9215 62.1161 33.9327 63.1274C34.9439 64.1386 36.3155 64.7067 37.7456 64.7067H53.9223V80.8834C53.9223 82.3135 54.4904 83.6851 55.5016 84.6963C56.5129 85.7076 57.8844 86.2757 59.3145 86.2757C60.7446 86.2757 62.1161 85.7076 63.1274 84.6963C64.1386 83.6851 64.7067 82.3135 64.7067 80.8834V64.7067H80.8834C82.3135 64.7067 83.6851 64.1386 84.6963 63.1274C85.7076 62.1161 86.2757 60.7446 86.2757 59.3145C86.2757 57.8844 85.7076 56.5129 84.6963 55.5016C83.6851 54.4904 82.3135 53.9223 80.8834 53.9223H64.7067V37.7456ZM59.3145 118.629C69.4673 118.631 79.4506 116.027 88.3087 111.066C97.1669 106.105 104.603 98.953 109.906 90.2952C115.209 81.6374 118.201 71.7633 118.595 61.6182C118.99 51.4731 116.773 41.3967 112.158 32.3533H150.982C159.563 32.3533 167.792 35.762 173.86 41.8294C179.927 47.8969 183.336 56.1261 183.336 64.7067V150.982C183.336 157.992 181.114 164.463 177.329 169.769L119.201 112.525C116.174 109.545 112.097 107.874 107.85 107.874C103.603 107.874 99.5256 109.545 96.4993 112.525L38.3711 169.769C34.4584 164.286 32.3547 157.718 32.3533 150.982V112.158C40.4417 116.3 49.6085 118.629 59.3145 118.629ZM134.806 86.2757C136.236 86.2757 137.607 85.7076 138.619 84.6963C139.63 83.6851 140.198 82.3135 140.198 80.8834C140.198 79.4533 139.63 78.0818 138.619 77.0705C137.607 76.0593 136.236 75.4912 134.806 75.4912C133.376 75.4912 132.004 76.0593 130.993 77.0705C129.982 78.0818 129.414 79.4533 129.414 80.8834C129.414 82.3135 129.982 83.6851 130.993 84.6963C132.004 85.7076 133.376 86.2757 134.806 86.2757ZM134.806 97.0601C139.096 97.0601 143.211 95.3558 146.244 92.3221C149.278 89.2884 150.982 85.1738 150.982 80.8834C150.982 76.5931 149.278 72.4785 146.244 69.4448C143.211 66.4111 139.096 64.7067 134.806 64.7067C130.515 64.7067 126.401 66.4111 123.367 69.4448C120.333 72.4785 118.629 76.5931 118.629 80.8834C118.629 85.1738 120.333 89.2884 123.367 92.3221C126.401 95.3558 130.515 97.0601 134.806 97.0601ZM45.9957 177.383C51.2801 181.136 57.74 183.336 64.7067 183.336H150.982C157.949 183.336 164.409 181.136 169.693 177.383L111.63 120.225C110.621 119.231 109.261 118.673 107.845 118.673C106.428 118.673 105.068 119.231 104.059 120.225L45.9957 177.383Z" fill="#8E9089"/>
</svg>
